<svg width="16" height="221" viewBox="0 0 16 221" fill="none" xmlns="http://www.w3.org/2000/svg">
<path d="M0.529297 25.8242L4.99414 1.0918C5.01758 0.998047 5.07617 0.951172 5.16992 0.951172H10.3906C10.4844 0.951172 10.543 0.998047 10.5664 1.0918L14.8555 25.8242C14.8672 25.9414 14.8203 26 14.7148 26H10.7246C10.6074 26 10.543 25.9414 10.5312 25.8242L10.1445 23.1875H5.24023L4.85352 25.8242C4.8418 25.9414 4.7832 26 4.67773 26H0.669922C0.576172 26 0.529297 25.9414 0.529297 25.8242ZM7.57812 9.23047L5.96094 19.3379H9.42383L7.94727 9.23047L7.73633 7.89453L7.57812 9.23047ZM7.77148 65.3516C6.50586 65.3516 5.33398 65.0234 4.25586 64.3672C3.17773 63.7109 2.31641 62.832 1.67188 61.7305C1.03906 60.6172 0.722656 59.4043 0.722656 58.0918L0.792969 40.0918C0.792969 39.998 0.839844 39.9512 0.933594 39.9512H4.97656C5.07031 39.9512 5.11719 39.998 5.11719 40.0918V58.0918C5.11719 58.9004 5.375 59.5918 5.89062 60.166C6.40625 60.7285 7.0332 61.0098 7.77148 61.0098C8.54492 61.0098 9.18945 60.7285 9.70508 60.166C10.2207 59.5918 10.4785 58.9004 10.4785 58.0918V40.0918C10.4785 39.998 10.5254 39.9512 10.6191 39.9512H14.6621C14.7559 39.9512 14.8027 39.998 14.8027 40.0918L14.873 58.0918C14.873 59.416 14.5566 60.6348 13.9238 61.748C13.2793 62.8496 12.4238 63.7285 11.3574 64.3848C10.291 65.0293 9.0957 65.3516 7.77148 65.3516ZM7.91211 104.352C6.61133 104.352 5.43945 104.029 4.39648 103.385C3.3418 102.74 2.49219 101.873 1.84766 100.783C1.21484 99.6934 0.898438 98.4746 0.898438 97.127V85.7188C0.898438 84.4062 1.2207 83.2109 1.86523 82.1328C2.49805 81.043 3.34766 80.1758 4.41406 79.5312C5.48047 78.875 6.64648 78.5469 7.91211 78.5469C9.23633 78.5469 10.4316 78.8633 11.498 79.4961C12.5645 80.1406 13.4082 81.002 14.0293 82.0801C14.6621 83.1582 14.9785 84.3711 14.9785 85.7188V87.3711C14.9785 87.4648 14.9199 87.5117 14.8027 87.5117H10.7598C10.666 87.5117 10.6191 87.4648 10.6191 87.3711V86C10.6191 85.0859 10.3613 84.3301 9.8457 83.7324C9.33008 83.1348 8.68555 82.8359 7.91211 82.8359C7.2207 82.8359 6.60547 83.123 6.06641 83.6973C5.52734 84.2715 5.25781 84.9453 5.25781 85.7188V97.127C5.25781 97.9121 5.52148 98.5918 6.04883 99.166C6.57617 99.7285 7.19727 100.01 7.91211 100.01C8.68555 100.01 9.33008 99.7344 9.8457 99.1836C10.3613 98.6211 10.6191 97.9355 10.6191 97.127V95.3516H8.10547C7.97656 95.3516 7.91211 95.293 7.91211 95.1758V91.1504C7.91211 91.0332 7.97656 90.9746 8.10547 90.9746H14.8379C14.9316 90.9746 14.9785 91.0332 14.9785 91.1504V97.127C14.9785 98.4746 14.6621 99.6934 14.0293 100.783C13.3848 101.873 12.5352 102.74 11.4805 103.385C10.4258 104.029 9.23633 104.352 7.91211 104.352ZM7.77148 143.352C6.50586 143.352 5.33398 143.023 4.25586 142.367C3.17773 141.711 2.31641 140.832 1.67188 139.73C1.03906 138.617 0.722656 137.404 0.722656 136.092L0.792969 118.092C0.792969 117.998 0.839844 117.951 0.933594 117.951H4.97656C5.07031 117.951 5.11719 117.998 5.11719 118.092V136.092C5.11719 136.9 5.375 137.592 5.89062 138.166C6.40625 138.729 7.0332 139.01 7.77148 139.01C8.54492 139.01 9.18945 138.729 9.70508 138.166C10.2207 137.592 10.4785 136.9 10.4785 136.092V118.092C10.4785 117.998 10.5254 117.951 10.6191 117.951H14.6621C14.7559 117.951 14.8027 117.998 14.8027 118.092L14.873 136.092C14.873 137.416 14.5566 138.635 13.9238 139.748C13.2793 140.85 12.4238 141.729 11.3574 142.385C10.291 143.029 9.0957 143.352 7.77148 143.352ZM4.95898 182H0.880859C0.787109 182 0.740234 181.941 0.740234 181.824L0.810547 157.092C0.810547 156.998 0.857422 156.951 0.951172 156.951H8.22852C9.5293 156.951 10.7246 157.268 11.8145 157.9C12.9043 158.533 13.7715 159.383 14.416 160.449C15.0723 161.516 15.4004 162.723 15.4004 164.07C15.4004 164.949 15.2656 165.746 14.9961 166.461C14.7266 167.176 14.4102 167.779 14.0469 168.271C13.6953 168.764 13.373 169.127 13.0801 169.361C14.3809 170.803 15.0312 172.496 15.0312 174.441L15.0664 181.824C15.0664 181.941 15.0078 182 14.8906 182H10.8125C10.7188 182 10.6719 181.965 10.6719 181.895V174.441C10.6719 173.574 10.3672 172.824 9.75781 172.191C9.14844 171.559 8.39844 171.242 7.50781 171.242H5.13477L5.09961 181.824C5.09961 181.941 5.05273 182 4.95898 182ZM8.22852 161.258H5.13477V166.918H8.22852C8.9668 166.918 9.62305 166.643 10.1973 166.092C10.7832 165.541 11.0762 164.867 11.0762 164.07C11.0762 163.309 10.7949 162.652 10.2324 162.102C9.66992 161.539 9.00195 161.258 8.22852 161.258ZM9.89844 221H5.82031C5.70312 221 5.64453 220.941 5.64453 220.824L5.67969 196.092C5.67969 195.998 5.72656 195.951 5.82031 195.951H9.86328C9.95703 195.951 10.0039 195.998 10.0039 196.092L10.0391 220.824C10.0391 220.941 9.99219 221 9.89844 221Z" fill="#FF040A"/>
</svg>
