<svg width="15" height="214" viewBox="0 0 15 214" fill="none" xmlns="http://www.w3.org/2000/svg">
<path d="M9.39844 26H5.33789C5.23242 26 5.17969 25.9414 5.17969 25.8242V5.29297H0.503906C0.386719 5.29297 0.328125 5.23438 0.328125 5.11719L0.363281 1.0918C0.363281 0.998047 0.410156 0.951172 0.503906 0.951172H14.1797C14.3086 0.951172 14.373 0.998047 14.373 1.0918V5.11719C14.373 5.23438 14.3262 5.29297 14.2324 5.29297H9.50391L9.53906 25.8242C9.53906 25.9414 9.49219 26 9.39844 26ZM0.0292969 72.8242L4.49414 48.0918C4.51758 47.998 4.57617 47.9512 4.66992 47.9512H9.89062C9.98438 47.9512 10.043 47.998 10.0664 48.0918L14.3555 72.8242C14.3672 72.9414 14.3203 73 14.2148 73H10.2246C10.1074 73 10.043 72.9414 10.0312 72.8242L9.64453 70.1875H4.74023L4.35352 72.8242C4.3418 72.9414 4.2832 73 4.17773 73H0.169922C0.0761719 73 0.0292969 72.9414 0.0292969 72.8242ZM7.07812 56.2305L5.46094 66.3379H8.92383L7.44727 56.2305L7.23633 54.8945L7.07812 56.2305ZM4.49414 120H0.890625C0.703125 120 0.609375 119.918 0.609375 119.754L0.574219 95.2324C0.574219 95.0449 0.667969 94.9512 0.855469 94.9512H4.10742L10.1895 109.137L10.0137 95.2324C10.0137 95.0449 10.1191 94.9512 10.3301 94.9512H13.8984C14.0391 94.9512 14.1094 95.0449 14.1094 95.2324L14.1445 119.789C14.1445 119.93 14.0859 120 13.9688 120H10.8047L4.56445 106.746L4.82812 119.719C4.82812 119.906 4.7168 120 4.49414 120ZM9.39844 167H5.33789C5.23242 167 5.17969 166.941 5.17969 166.824V146.293H0.503906C0.386719 146.293 0.328125 146.234 0.328125 146.117L0.363281 142.092C0.363281 141.998 0.410156 141.951 0.503906 141.951H14.1797C14.3086 141.951 14.373 141.998 14.373 142.092V146.117C14.373 146.234 14.3262 146.293 14.2324 146.293H9.50391L9.53906 166.824C9.53906 166.941 9.49219 167 9.39844 167ZM9.39844 214H5.32031C5.20312 214 5.14453 213.941 5.14453 213.824L5.17969 189.092C5.17969 188.998 5.22656 188.951 5.32031 188.951H9.36328C9.45703 188.951 9.50391 188.998 9.50391 189.092L9.53906 213.824C9.53906 213.941 9.49219 214 9.39844 214Z" fill="#FF040A"/>
</svg>
